<svg width="220" height="220" viewBox="0 0 220 220" fill="none" xmlns="http://www.w3.org/2000/svg">
<g filter="url(#filter0_d_46_1076)">
<g clip-path="url(#clip0_46_1076)">
<rect x="10" y="5" width="200" height="200" rx="100" fill="white"/>
<path d="M207.828 104.5C207.828 158.805 163.805 202.828 109.5 202.828C55.1948 202.828 11.1719 158.805 11.1719 104.5C11.1719 50.1948 55.1948 6.17188 109.5 6.17188C163.805 6.17188 207.828 50.1948 207.828 104.5Z" fill="white"/>
<path d="M89.5102 148.893C97.5402 162.239 104.047 176.5 109.931 190.999C112.873 198.262 115.658 205.589 118.416 212.925C121.175 220.262 123.837 227.909 126.009 235.602C128.478 244.365 130.413 253.284 131.613 262.34C131.771 263.502 133.452 263.008 133.303 261.855C131.158 245.747 126.7 230.086 121.052 214.956C115.57 200.284 109.992 185.629 103.399 171.451C99.6593 163.41 95.5874 155.534 91.0339 147.96C90.4384 146.963 88.9235 147.887 89.519 148.884L89.5102 148.893Z" fill="#D74848"/>
<path d="M103.263 151.304C103.85 157.15 104.261 163.022 104.971 168.849C105.68 174.676 107.037 180.439 107.834 186.275C107.992 187.437 109.682 186.943 109.524 185.79C108.727 179.963 107.37 174.265 106.67 168.419C105.969 162.574 105.584 157.003 105.014 151.304C104.901 150.143 103.149 150.134 103.263 151.304Z" fill="#D74848"/>
<path d="M84.6402 164.963C89.6141 167.57 93.5546 171.778 97.3989 175.894C99.2553 177.879 101.085 179.91 103.073 181.758C105.061 183.606 107.303 185.115 108.581 187.503C109.133 188.527 110.639 187.612 110.096 186.579C108.818 184.182 106.62 182.545 104.667 180.788C102.539 178.867 100.604 176.699 98.6336 174.596C94.693 170.379 90.6123 166.052 85.5159 163.381C84.5088 162.85 83.6244 164.433 84.6314 164.963H84.6402Z" fill="#D74848"/>
<path d="M107.514 172.958C110.412 169.152 112.085 164.624 114.16 160.325C114.668 159.273 113.153 158.349 112.645 159.401C110.64 163.536 109.055 168.009 106.27 171.668C105.973 172.061 105.911 172.583 106.27 172.958C106.577 173.278 107.216 173.342 107.505 172.958H107.514Z" fill="#D74848"/>
<path d="M95.9657 172.135C91.9201 171.852 87.8569 171.065 83.7938 171.403C82.6817 171.495 82.6642 173.324 83.7938 173.233C87.8569 172.894 91.9201 173.681 95.9657 173.965C97.0866 174.047 97.0866 172.218 95.9657 172.135Z" fill="#D74848"/>
<path d="M115.751 201.146C115.585 199.673 115.769 198.118 115.874 196.655C116.067 194.157 116.329 191.66 116.627 189.172C117.144 184.763 117.617 180.235 118.676 175.927C118.956 174.783 117.266 174.298 116.986 175.442C115.9 179.823 115.436 184.425 114.902 188.907C114.604 191.413 114.333 193.92 114.14 196.444C114.017 197.981 113.825 199.609 114 201.155C114.131 202.308 115.883 202.326 115.751 201.155V201.146Z" fill="#D74848"/>
<path d="M114.893 199.236C113.501 198.202 112.284 196.921 110.944 195.815C109.394 194.534 107.66 193.519 105.935 192.512C102.082 190.262 98.1154 188.25 94.2624 185.999C93.2729 185.423 92.3885 187.006 93.378 187.582C97.231 189.823 101.207 191.845 105.051 194.095C106.785 195.11 108.545 196.116 110.086 197.434C111.4 198.55 112.625 199.803 114.009 200.827C114.928 201.504 115.804 199.922 114.893 199.245V199.236Z" fill="#D74848"/>
<path d="M122.906 220.1C122.705 219.441 122.714 218.682 122.661 217.996C122.574 216.907 122.512 215.81 122.451 214.712C122.32 212.151 122.416 209.626 122.652 207.065C123.406 199.088 125.288 191.285 127.013 183.501C127.267 182.357 125.577 181.863 125.323 183.016C123.563 190.965 121.663 198.923 120.892 207.065C120.647 209.717 120.56 212.306 120.7 214.959C120.796 216.734 120.682 218.865 121.208 220.576C121.549 221.692 123.239 221.216 122.898 220.091L122.906 220.1Z" fill="#D74848"/>
<path d="M122.268 207.977C123.187 205.041 125.263 202.388 127.093 200.01C129.011 197.513 131.06 195.107 133.214 192.829C134.011 191.988 132.767 190.698 131.979 191.539C129.72 193.918 127.583 196.433 125.595 199.059C123.608 201.684 121.567 204.364 120.587 207.493C120.236 208.618 121.926 209.093 122.277 207.977H122.268Z" fill="#D74848"/>
<path d="M90.3241 152.93C92.8986 152.93 95.3681 150.561 95.2455 147.789C95.1229 145.018 93.0825 142.648 90.3241 142.648C87.7496 142.648 85.2802 145.018 85.4028 147.789C85.5254 150.561 87.5657 152.93 90.3241 152.93Z" fill="black"/>
<path d="M84.3401 168.422C86.9146 168.422 89.384 166.053 89.2614 163.282C89.1388 160.51 87.0985 158.141 84.3401 158.141C81.7656 158.141 79.2962 160.501 79.41 163.282C79.5239 166.062 81.573 168.422 84.3314 168.422H84.3401Z" fill="black"/>
<path d="M104.894 156.219C107.469 156.219 109.938 153.85 109.816 151.078C109.693 148.307 107.653 145.938 104.894 145.938C102.32 145.938 99.8505 148.307 99.9731 151.078C100.096 153.85 102.136 156.219 104.894 156.219Z" fill="black"/>
<path d="M93.3241 191.469C95.8986 191.469 98.3681 189.1 98.2455 186.328C98.1229 183.557 96.0825 181.188 93.3241 181.188C90.7496 181.188 88.2802 183.557 88.4028 186.328C88.5254 189.1 90.5657 191.469 93.3241 191.469Z" fill="black"/>
<path d="M118.394 180.54C120.969 180.54 123.438 178.17 123.316 175.399C123.193 172.627 121.153 170.258 118.394 170.258C115.82 170.258 113.351 172.627 113.473 175.399C113.596 178.17 115.636 180.54 118.394 180.54Z" fill="black"/>
<path d="M134.66 197.751C137.235 197.751 139.704 195.381 139.581 192.61C139.459 189.838 137.418 187.469 134.66 187.469C132.086 187.469 129.616 189.838 129.739 192.61C129.861 195.381 131.902 197.751 134.66 197.751Z" fill="black"/>
<path d="M114.792 161.844C117.961 161.844 117.961 156.703 114.792 156.703C111.622 156.703 111.622 161.844 114.792 161.844Z" fill="black"/>
<path d="M83.7525 175.547C86.9224 175.547 86.9224 170.406 83.7525 170.406C80.5825 170.406 80.5825 175.547 83.7525 175.547Z" fill="black"/>
<path d="M126.885 184.992C130.055 184.992 130.055 179.852 126.885 179.852C123.715 179.852 123.715 184.992 126.885 184.992Z" fill="black"/>
<path d="M129.49 60.107C121.46 46.7609 114.953 32.4999 109.069 18.0012C106.127 10.7381 103.342 3.41092 100.584 -3.92537C97.8252 -11.2617 95.1631 -18.909 92.9914 -26.602C90.522 -35.3653 88.5868 -44.2841 87.3871 -53.3401C87.2295 -54.5018 85.5482 -54.0079 85.697 -52.8553C87.8424 -36.7465 92.2996 -21.0861 97.9478 -5.9561C103.43 8.71646 109.008 23.3707 115.601 37.5493C119.341 45.59 123.413 53.466 127.966 61.0401C128.562 62.0372 130.076 61.1133 129.481 60.1162L129.49 60.107Z" fill="#D74848"/>
<path d="M115.737 57.6956C115.15 51.8503 114.739 45.9776 114.029 40.1507C113.32 34.3238 111.963 28.5608 111.166 22.7247C111.008 21.563 109.318 22.057 109.476 23.2096C110.273 29.0365 111.63 34.7354 112.33 40.5806C113.031 46.4259 113.416 51.9967 113.986 57.6956C114.099 58.8573 115.851 58.8665 115.737 57.6956Z" fill="#D74848"/>
<path d="M134.36 44.0368C129.386 41.4297 125.445 37.2219 121.601 33.1055C119.745 31.1205 117.915 29.0898 115.927 27.242C113.939 25.3942 111.697 23.8849 110.419 21.4974C109.867 20.4728 108.361 21.3876 108.904 22.4213C110.182 24.8179 112.38 26.4553 114.333 28.2116C116.461 30.1326 118.396 32.3006 120.366 34.4045C124.307 38.6215 128.388 42.9482 133.484 45.6193C134.491 46.1498 135.376 44.5673 134.369 44.0368H134.36Z" fill="#D74848"/>
<path d="M111.486 36.0422C108.588 39.8475 106.915 44.3755 104.84 48.6749C104.332 49.7268 105.847 50.6507 106.355 49.5988C108.36 45.4641 109.945 40.991 112.73 37.332C113.027 36.9386 113.089 36.4172 112.73 36.0422C112.423 35.722 111.784 35.658 111.495 36.0422H111.486Z" fill="#D74848"/>
<path d="M123.042 36.8648C127.088 37.1484 131.151 37.9351 135.214 37.5966C136.326 37.5051 136.344 35.6756 135.214 35.7671C131.151 36.1056 127.088 35.3189 123.042 35.0353C121.921 34.953 121.921 36.7825 123.042 36.8648Z" fill="#D74848"/>
<path d="M103.249 7.85386C103.415 9.32661 103.231 10.8817 103.126 12.3453C102.933 14.8425 102.671 17.3398 102.373 19.8279C101.856 24.237 101.383 28.765 100.324 33.0735C100.044 34.2169 101.734 34.7017 102.014 33.5583C103.1 29.1767 103.564 24.5755 104.098 20.0932C104.396 17.5868 104.667 15.0804 104.86 12.5557C104.983 11.0189 105.175 9.39064 105 7.84472C104.869 6.69213 103.117 6.67384 103.249 7.84472V7.85386Z" fill="#D74848"/>
<path d="M104.107 9.76429C105.499 10.798 106.716 12.0786 108.056 13.1855C109.606 14.4661 111.34 15.4815 113.065 16.4877C116.918 18.738 120.885 20.7504 124.738 23.0007C125.727 23.577 126.612 21.9945 125.622 21.4182C121.769 19.1771 117.793 17.1555 113.949 14.9052C112.215 13.8898 110.455 12.8836 108.914 11.5663C107.6 10.4504 106.375 9.19715 104.991 8.17263C104.072 7.49571 103.196 9.07823 104.107 9.75514V9.76429Z" fill="#D74848"/>
<path d="M96.0936 -11.0999C96.295 -10.4413 96.2863 -9.68202 96.3388 -8.99596C96.4264 -7.90741 96.4877 -6.80971 96.549 -5.71201C96.6803 -3.15071 96.584 -0.626002 96.3476 1.93529C95.5945 9.9119 93.7118 17.7147 91.9867 25.4992C91.7327 26.6427 93.4228 27.1366 93.6767 25.984C95.4368 18.0349 97.3371 10.0766 98.1077 1.93529C98.3529 -0.717478 98.4404 -3.30622 98.3003 -5.95899C98.204 -7.73361 98.3178 -9.86497 97.7924 -11.5755C97.4509 -12.6915 95.7608 -12.2159 96.1024 -11.0907L96.0936 -11.0999Z" fill="#D74848"/>
<path d="M96.7321 1.02251C95.8127 3.95886 93.7373 6.61163 91.9071 8.98998C89.9894 11.4872 87.9403 13.893 85.7861 16.1708C84.9893 17.0123 86.2327 18.3021 87.0208 17.4606C89.2801 15.0822 91.4167 12.5666 93.4045 9.94132C95.3923 7.31599 97.4327 4.63578 98.4134 1.50734C98.7637 0.382196 97.0736 -0.09348 96.7234 1.02251H96.7321Z" fill="#D74848"/>
<path d="M128.676 56.0698C126.101 56.0698 123.632 58.439 123.755 61.2107C123.877 63.9824 125.917 66.3516 128.676 66.3516C131.25 66.3516 133.72 63.9824 133.597 61.2107C133.475 58.439 131.434 56.0698 128.676 56.0698Z" fill="black"/>
<path d="M134.66 40.5776C132.085 40.5776 129.616 42.9468 129.739 45.7185C129.861 48.4902 131.901 50.8594 134.66 50.8594C137.234 50.8594 139.704 48.4993 139.59 45.7185C139.476 42.9377 137.427 40.5776 134.669 40.5776H134.66Z" fill="black"/>
<path d="M114.106 52.7807C111.531 52.7807 109.062 55.1499 109.184 57.9216C109.307 60.6933 111.347 63.0625 114.106 63.0625C116.68 63.0625 119.149 60.6933 119.027 57.9216C118.904 55.1499 116.864 52.7807 114.106 52.7807Z" fill="black"/>
<path d="M125.676 17.5307C123.101 17.5307 120.632 19.8999 120.755 22.6716C120.877 25.4433 122.917 27.8125 125.676 27.8125C128.25 27.8125 130.72 25.4433 130.597 22.6716C130.475 19.8999 128.434 17.5307 125.676 17.5307Z" fill="black"/>
<path d="M100.606 28.4604C98.031 28.4604 95.5616 30.8296 95.6842 33.6013C95.8068 36.373 97.8472 38.7422 100.606 38.7422C103.18 38.7422 105.649 36.373 105.527 33.6013C105.404 30.8296 103.364 28.4604 100.606 28.4604Z" fill="black"/>
<path d="M84.3399 11.2573C81.7654 11.2573 79.296 13.6265 79.4186 16.3982C79.5412 19.1699 81.5815 21.5391 84.3399 21.5391C86.9144 21.5391 89.3838 19.1699 89.2612 16.3982C89.1386 13.6265 87.0983 11.2573 84.3399 11.2573Z" fill="black"/>
<path d="M104.208 47.156C101.039 47.156 101.039 52.2969 104.208 52.2969C107.378 52.2969 107.378 47.156 104.208 47.156Z" fill="black"/>
<path d="M135.248 33.4529C132.078 33.4529 132.078 38.5938 135.248 38.5938C138.417 38.5938 138.417 33.4529 135.248 33.4529Z" fill="black"/>
<path d="M92.1147 24.0075C88.9448 24.0075 88.9448 29.1484 92.1147 29.1484C95.2847 29.1484 95.2847 24.0075 92.1147 24.0075Z" fill="black"/>
<path d="M153.893 124.49C167.239 116.46 181.5 109.953 195.999 104.069C203.262 101.127 210.589 98.342 217.925 95.5836C225.262 92.8252 232.909 90.1631 240.602 87.9914C249.365 85.522 258.284 83.5868 267.34 82.3871C268.502 82.2295 268.008 80.5482 266.855 80.697C250.747 82.8424 235.086 87.2996 219.956 92.9478C205.284 98.4295 190.629 104.008 176.451 110.601C168.41 114.341 160.534 118.413 152.96 122.966C151.963 123.562 152.887 125.076 153.884 124.481L153.893 124.49Z" fill="#D74848"/>
<path d="M156.304 110.737C162.15 110.15 168.022 109.739 173.849 109.029C179.676 108.32 185.439 106.963 191.275 106.166C192.437 106.008 191.943 104.318 190.79 104.476C184.963 105.273 179.265 106.63 173.419 107.33C167.574 108.031 162.003 108.416 156.304 108.986C155.143 109.099 155.134 110.851 156.304 110.737Z" fill="#D74848"/>
<path d="M169.963 129.36C172.57 124.386 176.778 120.445 180.894 116.601C182.879 114.745 184.91 112.915 186.758 110.927C188.606 108.939 190.115 106.697 192.503 105.419C193.527 104.867 192.612 103.361 191.579 103.904C189.182 105.182 187.545 107.38 185.788 109.333C183.867 111.461 181.699 113.396 179.596 115.366C175.379 119.307 171.052 123.388 168.381 128.484C167.85 129.491 169.433 130.376 169.963 129.369V129.36Z" fill="#D74848"/>
<path d="M177.958 106.486C174.152 103.588 169.624 101.915 165.325 99.8399C164.273 99.332 163.349 100.847 164.401 101.355C168.536 103.36 173.009 104.945 176.668 107.73C177.061 108.027 177.583 108.089 177.958 107.73C178.278 107.423 178.342 106.784 177.958 106.495V106.486Z" fill="#D74848"/>
<path d="M177.135 118.042C176.852 122.088 176.065 126.151 176.403 130.214C176.495 131.326 178.324 131.344 178.233 130.214C177.894 126.151 178.681 122.088 178.965 118.042C179.047 116.921 177.218 116.921 177.135 118.042Z" fill="#D74848"/>
<path d="M206.146 98.2487C204.673 98.4151 203.118 98.2312 201.655 98.1261C199.157 97.9334 196.66 97.6707 194.172 97.373C189.763 96.8564 185.235 96.3835 180.927 95.3239C179.783 95.0437 179.298 96.7338 180.442 97.014C184.823 98.0998 189.425 98.5639 193.907 99.0981C196.413 99.3958 198.92 99.6673 201.444 99.8599C202.981 99.9825 204.609 100.175 206.155 100C207.308 99.8687 207.326 98.1173 206.155 98.2487H206.146Z" fill="#D74848"/>
<path d="M204.236 99.1065C203.202 100.499 201.921 101.716 200.815 103.056C199.534 104.606 198.519 106.34 197.512 108.065C195.262 111.918 193.25 115.885 190.999 119.738C190.423 120.727 192.006 121.612 192.582 120.622C194.823 116.769 196.845 112.793 199.095 108.949C200.11 107.215 201.116 105.455 202.434 103.914C203.55 102.6 204.803 101.375 205.827 99.991C206.504 99.0715 204.922 98.1958 204.245 99.1065H204.236Z" fill="#D74848"/>
<path d="M225.1 91.0936C224.441 91.295 223.682 91.2863 222.996 91.3388C221.907 91.4264 220.81 91.4877 219.712 91.549C217.151 91.6803 214.626 91.584 212.065 91.3476C204.088 90.5945 196.285 88.7118 188.501 86.9867C187.357 86.7327 186.863 88.4228 188.016 88.6767C195.965 90.4368 203.923 92.3371 212.065 93.1077C214.717 93.3529 217.306 93.4404 219.959 93.3003C221.734 93.204 223.865 93.3178 225.576 92.7924C226.692 92.4509 226.216 90.7608 225.091 91.1024L225.1 91.0936Z" fill="#D74848"/>
<path d="M212.977 91.7321C210.041 90.8127 207.388 88.7373 205.01 86.9071C202.513 84.9894 200.107 82.9403 197.829 80.7861C196.988 79.9893 195.698 81.2327 196.539 82.0208C198.918 84.2801 201.433 86.4167 204.059 88.4045C206.684 90.3923 209.364 92.4327 212.493 93.4134C213.618 93.7637 214.093 92.0736 212.977 91.7234V91.7321Z" fill="#D74848"/>
<path d="M157.93 123.676C157.93 121.101 155.561 118.632 152.789 118.755C150.018 118.877 147.648 120.917 147.648 123.676C147.648 126.25 150.018 128.72 152.789 128.597C155.561 128.475 157.93 126.434 157.93 123.676Z" fill="black"/>
<path d="M173.422 129.66C173.422 127.085 171.053 124.616 168.282 124.739C165.51 124.861 163.141 126.901 163.141 129.66C163.141 132.234 165.501 134.704 168.282 134.59C171.062 134.476 173.422 132.427 173.422 129.669V129.66Z" fill="black"/>
<path d="M161.219 109.106C161.219 106.531 158.85 104.062 156.078 104.184C153.307 104.307 150.938 106.347 150.938 109.106C150.938 111.68 153.307 114.149 156.078 114.027C158.85 113.904 161.219 111.864 161.219 109.106Z" fill="black"/>
<path d="M196.469 120.676C196.469 118.101 194.1 115.632 191.328 115.755C188.557 115.877 186.188 117.917 186.188 120.676C186.188 123.25 188.557 125.72 191.328 125.597C194.1 125.475 196.469 123.434 196.469 120.676Z" fill="black"/>
<path d="M185.54 95.6055C185.54 93.031 183.17 90.5616 180.399 90.6842C177.627 90.8068 175.258 92.8472 175.258 95.6055C175.258 98.18 177.627 100.649 180.399 100.527C183.17 100.404 185.54 98.3639 185.54 95.6055Z" fill="black"/>
<path d="M202.751 79.3399C202.751 76.7654 200.381 74.296 197.61 74.4186C194.838 74.5412 192.469 76.5815 192.469 79.3399C192.469 81.9144 194.838 84.3838 197.61 84.2612C200.381 84.1386 202.751 82.0983 202.751 79.3399Z" fill="black"/>
<path d="M166.844 99.2085C166.844 96.0385 161.703 96.0385 161.703 99.2085C161.703 102.378 166.844 102.378 166.844 99.2085Z" fill="black"/>
<path d="M180.547 130.248C180.547 127.078 175.406 127.078 175.406 130.248C175.406 133.417 180.547 133.417 180.547 130.248Z" fill="black"/>
<path d="M189.992 87.1147C189.992 83.9448 184.852 83.9448 184.852 87.1147C184.852 90.2847 189.992 90.2847 189.992 87.1147Z" fill="black"/>
<path d="M65.107 84.5102C51.7609 92.5402 37.4999 99.0465 23.0012 104.931C15.7381 107.873 8.41092 110.658 1.07463 113.416C-6.26165 116.175 -13.909 118.837 -21.602 121.009C-30.3653 123.478 -39.2841 125.413 -48.3401 126.613C-49.5018 126.771 -49.0079 128.452 -47.8553 128.303C-31.7465 126.158 -16.0861 121.7 -0.956104 116.052C13.7165 110.57 28.3707 104.992 42.5493 98.3985C50.59 94.6593 58.466 90.5874 66.0401 86.0339C67.0372 85.4384 66.1133 83.9235 65.1162 84.519L65.107 84.5102Z" fill="#D74848"/>
<path d="M62.6956 98.2631C56.8503 98.8498 50.9776 99.2614 45.1507 99.9707C39.3238 100.68 33.5608 102.037 27.7247 102.834C26.563 102.992 27.057 104.682 28.2096 104.524C34.0365 103.727 39.7354 102.37 45.5806 101.67C51.4259 100.969 56.9967 100.584 62.6956 100.014C63.8573 99.9006 63.8665 98.1493 62.6956 98.2631Z" fill="#D74848"/>
<path d="M49.0368 79.6402C46.4297 84.6141 42.2219 88.5546 38.1055 92.3989C36.1205 94.2553 34.0898 96.0855 32.242 98.0733C30.3942 100.061 28.8849 102.303 26.4974 103.581C25.4728 104.133 26.3876 105.639 27.4213 105.096C29.8179 103.818 31.4553 101.62 33.2116 99.667C35.1326 97.5391 37.3006 95.6038 39.4045 93.6336C43.6215 89.693 47.9482 85.6123 50.6193 80.5159C51.1498 79.5088 49.5673 78.6244 49.0368 79.6314V79.6402Z" fill="#D74848"/>
<path d="M41.0422 102.514C44.8475 105.412 49.3755 107.085 53.6749 109.16C54.7268 109.668 55.6507 108.153 54.5988 107.645C50.4641 105.64 45.991 104.055 42.332 101.27C41.9386 100.973 41.4172 100.911 41.0422 101.27C40.722 101.577 40.658 102.216 41.0422 102.505V102.514Z" fill="#D74848"/>
<path d="M41.8648 90.9657C42.1484 86.9201 42.9351 82.8569 42.5966 78.7938C42.5051 77.6817 40.6756 77.6642 40.7671 78.7938C41.1056 82.8569 40.3189 86.9201 40.0353 90.9657C39.953 92.0866 41.7825 92.0866 41.8648 90.9657Z" fill="#D74848"/>
<path d="M12.8539 110.751C14.3266 110.585 15.8817 110.769 17.3453 110.874C19.8425 111.067 22.3398 111.329 24.8279 111.627C29.237 112.144 33.765 112.617 38.0735 113.676C39.2169 113.956 39.7017 112.266 38.5583 111.986C34.1767 110.9 29.5755 110.436 25.0932 109.902C22.5868 109.604 20.0804 109.333 17.5557 109.14C16.0189 109.017 14.3906 108.825 12.8447 109C11.6921 109.131 11.6738 110.883 12.8447 110.751H12.8539Z" fill="#D74848"/>
<path d="M14.7643 109.893C15.798 108.501 17.0786 107.284 18.1855 105.944C19.4661 104.394 20.4815 102.66 21.4877 100.935C23.738 97.0823 25.7504 93.1154 28.0007 89.2624C28.577 88.2729 26.9945 87.3885 26.4182 88.378C24.1771 92.231 22.1555 96.2066 19.9052 100.051C18.8898 101.785 17.8836 103.545 16.5663 105.086C15.4504 106.4 14.1971 107.625 13.1726 109.009C12.4957 109.928 14.0782 110.804 14.7551 109.893H14.7643Z" fill="#D74848"/>
<path d="M-6.09987 117.906C-5.44126 117.705 -4.68202 117.714 -3.99596 117.661C-2.90741 117.574 -1.80971 117.512 -0.712008 117.451C1.84929 117.32 4.374 117.416 6.93529 117.652C14.9119 118.406 22.7147 120.288 30.4992 122.013C31.6427 122.267 32.1366 120.577 30.984 120.323C23.0349 118.563 15.0766 116.663 6.93529 115.892C4.28252 115.647 1.69378 115.56 -0.958994 115.7C-2.73361 115.796 -4.86497 115.682 -6.57555 116.208C-7.69154 116.549 -7.21588 118.239 -6.09073 117.898L-6.09987 117.906Z" fill="#D74848"/>
<path d="M6.02251 117.268C8.95886 118.187 11.6116 120.263 13.99 122.093C16.4872 124.011 18.893 126.06 21.1708 128.214C22.0123 129.011 23.3021 127.767 22.4606 126.979C20.0822 124.72 17.5666 122.583 14.9413 120.595C12.316 118.608 9.63578 116.567 6.50734 115.587C5.3822 115.236 4.90652 116.926 6.02251 117.277V117.268Z" fill="#D74848"/>
<path d="M61.0698 85.3241C61.0698 87.8986 63.439 90.3681 66.2107 90.2455C68.9824 90.1229 71.3516 88.0825 71.3516 85.3241C71.3516 82.7496 68.9824 80.2802 66.2107 80.4028C63.439 80.5254 61.0698 82.5657 61.0698 85.3241Z" fill="black"/>
<path d="M45.5776 79.3401C45.5776 81.9146 47.9468 84.384 50.7185 84.2614C53.4902 84.1388 55.8594 82.0985 55.8594 79.3401C55.8594 76.7656 53.4993 74.2962 50.7185 74.41C47.9377 74.5239 45.5776 76.573 45.5776 79.3314V79.3401Z" fill="black"/>
<path d="M57.7807 99.8945C57.7807 102.469 60.1499 104.938 62.9216 104.816C65.6933 104.693 68.0625 102.653 68.0625 99.8945C68.0625 97.32 65.6933 94.8505 62.9216 94.9731C60.1499 95.0957 57.7807 97.1361 57.7807 99.8945Z" fill="black"/>
<path d="M22.5307 88.3241C22.5307 90.8986 24.8999 93.3681 27.6716 93.2455C30.4433 93.1229 32.8125 91.0825 32.8125 88.3241C32.8125 85.7496 30.4433 83.2802 27.6716 83.4028C24.8999 83.5254 22.5307 85.5657 22.5307 88.3241Z" fill="black"/>
<path d="M33.4604 113.394C33.4604 115.969 35.8296 118.438 38.6013 118.316C41.373 118.193 43.7422 116.153 43.7422 113.394C43.7422 110.82 41.373 108.351 38.6013 108.473C35.8296 108.596 33.4604 110.636 33.4604 113.394Z" fill="black"/>
<path d="M16.2573 129.66C16.2573 132.235 18.6265 134.704 21.3982 134.581C24.1699 134.459 26.5391 132.418 26.5391 129.66C26.5391 127.086 24.1699 124.616 21.3982 124.739C18.6265 124.861 16.2573 126.902 16.2573 129.66Z" fill="black"/>
<path d="M52.156 109.792C52.156 112.961 57.2969 112.961 57.2969 109.792C57.2969 106.622 52.156 106.622 52.156 109.792Z" fill="black"/>
<path d="M38.4529 78.7525C38.4529 81.9224 43.5938 81.9224 43.5938 78.7525C43.5938 75.5825 38.4529 75.5825 38.4529 78.7525Z" fill="black"/>
<path d="M29.0075 121.885C29.0075 125.055 34.1484 125.055 34.1484 121.885C34.1484 118.715 29.0075 118.715 29.0075 121.885Z" fill="black"/>
<path d="M126.748 150.021C141.864 153.78 156.548 159.264 170.961 165.355C178.178 168.41 185.328 171.622 192.466 174.859C199.604 178.096 206.894 181.621 213.869 185.526C221.812 189.976 229.487 194.914 236.739 200.469C237.672 201.179 238.511 199.641 237.591 198.931C224.683 189.058 210.458 181.136 195.766 174.431C181.514 167.932 167.208 161.515 152.519 156.151C144.19 153.11 135.741 150.42 127.166 148.284C126.04 148 125.622 149.725 126.748 150.009L126.748 150.021Z" fill="black"/>
<path d="M138.185 142.005C142.733 145.724 147.177 149.585 151.798 153.204C156.42 156.823 161.455 159.938 166.145 163.501C167.078 164.211 167.924 162.667 166.997 161.963C162.314 158.407 157.324 155.337 152.696 151.699C148.067 148.061 143.855 144.394 139.423 140.767C138.521 140.026 137.276 141.258 138.185 142.005Z" fill="black"/>
<path d="M134.671 164.836C140.032 163.162 145.794 163.351 151.423 163.544C154.139 163.634 156.869 163.776 159.581 163.677C162.293 163.578 164.946 163.06 167.538 163.845C168.652 164.179 169.071 162.467 167.956 162.12C165.357 161.329 162.645 161.726 160.022 161.865C157.159 162.011 154.258 161.846 151.377 161.752C145.609 161.556 139.664 161.382 134.171 163.097C133.084 163.434 133.578 165.179 134.665 164.842L134.671 164.836Z" fill="black"/>
<path d="M156.499 154.313C155.858 149.573 153.839 145.188 152.266 140.681C151.881 139.578 150.157 139.996 150.541 141.099C152.047 145.44 154.089 149.724 154.708 154.28C154.775 154.769 155.101 155.181 155.62 155.192C156.063 155.202 156.56 154.795 156.493 154.319L156.499 154.313Z" fill="black"/>
<path d="M147.754 161.898C144.693 164.559 141.264 166.875 138.63 169.988C137.908 170.839 139.189 172.145 139.923 171.281C142.557 168.169 145.987 165.852 149.048 163.192C149.899 162.458 148.605 161.164 147.754 161.898Z" fill="black"/>
<path d="M182.261 168.419C181.102 167.496 180.133 166.266 179.172 165.157C177.542 163.255 175.962 161.303 174.414 159.333C171.661 155.85 168.794 152.314 166.496 148.518C165.886 147.512 164.348 148.364 164.959 149.371C167.289 153.237 170.214 156.818 173.006 160.366C174.568 162.348 176.148 164.313 177.797 166.234C178.797 167.407 179.812 168.695 181.029 169.664C181.937 170.386 183.189 169.161 182.268 168.426L182.261 168.419Z" fill="black"/>
<path d="M180.303 167.678C178.588 167.931 176.821 167.887 175.091 168.051C173.09 168.242 171.146 168.75 169.215 169.258C164.899 170.391 160.671 171.773 156.355 172.907C155.248 173.199 155.742 174.943 156.849 174.651C161.158 173.511 165.399 172.129 169.708 171.002C171.652 170.494 173.608 169.961 175.629 169.803C177.347 169.663 179.1 169.683 180.803 169.429C181.932 169.257 181.432 167.519 180.31 167.684L180.303 167.678Z" fill="black"/>
<path d="M200.724 176.766C200.116 176.443 199.585 175.9 199.063 175.452C198.231 174.744 197.412 174.011 196.592 173.279C194.688 171.56 192.971 169.707 191.327 167.729C186.219 161.556 182.033 154.707 177.748 147.983C177.12 146.995 175.575 147.841 176.211 148.835C180.587 155.701 184.871 162.672 190.082 168.973C191.785 171.022 193.554 172.915 195.528 174.692C196.851 175.878 198.278 177.466 199.859 178.304C200.89 178.852 201.748 177.32 200.711 176.766L200.724 176.766Z" fill="black"/>
<path d="M191.696 168.641C190.27 165.915 189.861 162.572 189.474 159.596C189.064 156.474 188.812 153.324 188.724 150.19C188.693 149.032 186.901 148.999 186.939 150.151C187.023 153.43 187.291 156.72 187.742 159.982C188.193 163.244 188.645 166.582 190.164 169.488C190.712 170.531 192.243 169.672 191.702 168.635L191.696 168.641Z" fill="black"/>
<path d="M210.813 181.85C205.322 178.7 198.752 178.556 192.797 179.401C186.843 180.245 180.736 182.238 175.474 185.223C174.487 185.784 175.407 187.36 176.394 186.8C181.363 183.979 186.966 182.127 192.673 181.233C198.379 180.339 204.72 180.376 209.967 183.382C210.986 183.967 211.838 182.429 210.819 181.844L210.813 181.85Z" fill="black"/>
<path d="M188.144 180.441C184.407 185.459 180.477 190.334 176.668 195.294C175.992 196.177 177.273 197.483 177.962 196.587C181.875 191.51 185.892 186.51 189.721 181.361C190.391 180.459 188.808 179.545 188.144 180.441Z" fill="black"/>
<path d="M221.009 187.711C217.249 185.326 214.608 181.447 212.307 177.734C210.005 174.02 208.047 170.118 205.645 166.465C204.997 165.483 203.459 166.335 204.107 167.317C206.646 171.169 208.691 175.307 211.156 179.208C213.62 183.109 216.314 186.818 220.157 189.262C221.145 189.891 221.997 188.353 221.009 187.724L221.009 187.711Z" fill="black"/>
<path d="M227.354 191.935C223.258 190.093 218.55 190.054 214.221 190.282C209.506 190.534 204.84 191.254 200.261 192.211C199.14 192.44 199.633 194.184 200.755 193.955C205.101 193.051 209.514 192.35 213.976 192.093C218.026 191.858 222.649 191.738 226.508 193.48C227.562 193.952 228.428 192.427 227.36 191.942L227.354 191.935Z" fill="black"/>
<path d="M130.191 152.311C132.011 150.49 132.082 147.069 130.036 145.196C127.989 143.323 124.871 143.09 122.92 145.04C121.1 146.861 121.029 150.282 123.076 152.155C125.122 154.029 128.24 154.261 130.191 152.311Z" fill="#D74848"/>
<path d="M136.908 167.485C138.728 165.664 138.799 162.243 136.752 160.37C134.706 158.496 131.588 158.264 129.637 160.214C127.817 162.035 127.739 165.45 129.786 167.336C131.833 169.221 134.951 169.441 136.901 167.491L136.908 167.485Z" fill="#D74848"/>
<path d="M142.816 144.326C144.636 142.506 144.707 139.085 142.661 137.211C140.614 135.338 137.496 135.106 135.546 137.056C133.725 138.877 133.654 142.298 135.701 144.171C137.747 146.044 140.865 146.277 142.816 144.326Z" fill="#D74848"/>
<path d="M159.558 177.436C161.378 175.615 161.449 172.194 159.403 170.321C157.356 168.448 154.238 168.215 152.288 170.165C150.467 171.986 150.396 175.407 152.443 177.28C154.49 179.154 157.608 179.386 159.558 177.436Z" fill="#D74848"/>
<path d="M169.558 151.975C171.378 150.154 171.449 146.733 169.403 144.86C167.356 142.987 164.238 142.754 162.288 144.705C160.467 146.525 160.396 149.946 162.443 151.82C164.49 153.693 167.608 153.925 169.558 151.975Z" fill="#D74848"/>
<path d="M193.222 152.647C195.043 150.826 195.113 147.405 193.067 145.532C191.02 143.658 187.902 143.426 185.952 145.376C184.131 147.197 184.06 150.618 186.107 152.491C188.154 154.365 191.272 154.597 193.222 152.647Z" fill="#D74848"/>
<path d="M173.456 191.813L173.3 191.93C172.373 192.637 171.878 194.322 171.909 195.455C171.936 196.683 172.512 198.176 173.455 199.045C174.398 199.913 175.704 200.625 177.045 200.591C178.474 200.559 179.468 200.03 180.57 199.2L180.726 199.083C181.653 198.376 182.148 196.691 182.117 195.558C182.09 194.33 181.513 192.836 180.571 191.968C179.628 191.1 178.322 190.388 176.981 190.422C175.552 190.454 174.557 190.983 173.456 191.813L173.3 191.93C172.373 192.637 171.878 194.322 171.909 195.455C171.936 196.683 172.512 198.176 173.455 199.045C174.398 199.913 175.704 200.625 177.045 200.591C178.474 200.559 179.468 200.03 180.57 199.2L180.726 199.083C181.653 198.376 182.148 196.691 182.117 195.558C182.09 194.33 181.513 192.836 180.571 191.968C179.628 191.1 178.322 190.388 176.981 190.422C175.552 190.454 174.557 190.983 173.456 191.813Z" fill="#D74848"/>
<path d="M153.785 141.306C156.027 139.064 152.391 135.429 150.15 137.67C147.908 139.912 151.544 143.547 153.785 141.306Z" fill="#D74848"/>
<path d="M141.535 172.938C143.777 170.697 140.141 167.062 137.9 169.303C135.658 171.545 139.294 175.18 141.535 172.938Z" fill="#D74848"/>
<path d="M176.848 187.056C179.089 184.814 175.454 181.179 173.212 183.42C170.971 185.662 174.606 189.297 176.848 187.056Z" fill="#D74848"/>
<path d="M178.707 149.126C180.948 146.884 177.313 143.249 175.072 145.491C172.83 147.732 176.465 151.367 178.707 149.126Z" fill="#D74848"/>
<path d="M203.235 163.026C203.148 163.087 203.073 163.149 202.986 163.21C202.738 163.445 202.567 163.72 202.473 164.034C202.327 164.322 202.271 164.637 202.291 164.967C202.285 165.296 202.362 165.62 202.514 165.908C202.616 166.233 202.805 166.522 203.064 166.755L203.611 167.178C204.002 167.408 204.415 167.525 204.858 167.535L205.496 167.466C205.93 167.355 206.305 167.149 206.621 166.833C206.708 166.771 206.783 166.71 206.87 166.648C207.118 166.413 207.289 166.139 207.384 165.824C207.529 165.537 207.586 165.221 207.566 164.892C207.571 164.563 207.495 164.239 207.343 163.951C207.241 163.626 207.051 163.337 206.793 163.103L206.246 162.68C205.855 162.45 205.441 162.334 204.998 162.324L204.36 162.392C203.926 162.503 203.551 162.71 203.235 163.026Z" fill="#D74848"/>
<path d="M201.566 194.626C203.808 192.384 200.173 188.749 197.931 190.991C195.69 193.232 199.325 196.867 201.566 194.626Z" fill="#D74848"/>
<path d="M92.2517 58.9788C77.1365 55.2197 62.4518 49.7363 48.0387 43.6452C40.8223 40.5899 33.6722 37.3779 26.5342 34.1408C19.3962 30.9037 12.1064 27.3786 5.13096 23.4745C-2.81177 19.024 -10.4867 14.0859 -17.7386 8.53065C-18.6715 7.82064 -19.5111 9.35879 -18.5908 10.0685C-5.68322 19.9421 8.54214 27.864 23.2345 34.5686C37.4857 41.0675 51.7922 47.4854 66.4805 52.8486C74.8101 55.8902 83.2585 58.5801 91.8341 60.7159C92.9602 60.9999 93.3781 59.2754 92.252 58.9914L92.2517 58.9788Z" fill="black"/>
<path d="M80.8152 66.9946C76.2671 63.2763 71.8235 59.4147 67.2017 55.7959C62.5798 52.1772 57.5451 49.062 52.8549 45.4987C51.9219 44.7887 51.0762 46.333 52.0026 47.0366C56.6864 50.5934 61.6759 53.6633 66.3044 57.3012C70.933 60.939 75.1446 64.6058 79.5768 68.233C80.4788 68.974 81.7236 67.742 80.8152 66.9946Z" fill="black"/>
<path d="M84.3288 44.1721C78.9683 45.8457 73.2065 45.6567 67.5775 45.4643C64.8612 45.3734 62.1311 45.2316 59.4189 45.3306C56.7068 45.4296 54.0543 45.9474 51.4621 45.1633C50.3476 44.8289 49.9294 46.5408 51.0442 46.8878C53.6429 47.6784 56.3549 47.2821 58.9776 47.1431C61.8406 46.9968 64.742 47.1614 67.6229 47.2559C73.3912 47.4513 79.3361 47.6253 84.8286 45.9103C85.9158 45.5734 85.4222 43.829 84.335 44.1659L84.3288 44.1721Z" fill="black"/>
<path d="M62.5011 54.6868C63.1423 59.4271 65.1615 63.8116 66.734 68.3192C67.1187 69.4222 68.8432 69.0042 68.4585 67.9013C66.9529 63.5596 64.9106 59.2759 64.2924 54.7196C64.2248 54.2309 63.8994 53.8189 63.3804 53.8075C62.9372 53.7979 62.44 54.2046 62.5073 54.6806L62.5011 54.6868Z" fill="black"/>
<path d="M71.2459 47.1017C74.3071 44.4415 77.7365 42.1247 80.3703 39.0123C81.092 38.1612 79.8107 36.8552 79.0766 37.7186C76.4428 40.831 73.0135 43.1478 69.9523 45.808C69.1015 46.5424 70.3951 47.836 71.2459 47.1017Z" fill="black"/>
<path d="M36.7387 40.5805C37.8978 41.5042 38.8673 42.7339 39.8279 43.8431C41.4576 45.7452 43.0376 47.6968 44.5865 49.6666C47.3388 53.1497 50.2062 56.6858 52.5036 60.4816C53.1139 61.4883 54.6518 60.636 54.0414 59.6294C51.7109 55.7633 48.7856 52.1816 45.9939 48.6344C44.4321 46.6516 42.8517 44.6873 41.2027 42.7659C40.2027 41.5925 39.1876 40.3049 37.9706 39.3356C37.0628 38.6135 35.8114 39.839 36.7323 40.574L36.7387 40.5805Z" fill="black"/>
<path d="M38.6969 41.3222C40.4124 41.0686 42.1786 41.1135 43.9086 40.9488C45.9102 40.7584 47.8542 40.2503 49.7855 39.742C54.1012 38.6087 58.3292 37.2267 62.6448 36.0935C63.752 35.8013 63.2584 34.0569 62.1512 34.3491C57.842 35.4888 53.6014 36.8705 49.2919 37.9976C47.3479 38.5056 45.3918 39.0387 43.3706 39.1971C41.6526 39.3368 39.8996 39.3175 38.1968 39.5714C37.068 39.7429 37.5678 41.4811 38.6905 41.3158L38.6969 41.3222Z" fill="black"/>
<path d="M18.2761 32.2336C18.8842 32.5569 19.4149 33.1 19.9372 33.5479C20.7688 34.2557 21.5883 34.9886 22.4079 35.7214C24.3119 37.4396 26.029 39.293 27.6729 41.2713C32.7807 47.4441 36.9669 54.2928 41.2515 61.0171C41.8805 62.0052 43.4248 61.1594 42.7894 60.1649C38.4131 53.2994 34.1293 46.3283 28.9175 40.0267C27.2151 37.9775 25.4465 36.0851 23.4716 34.3084C22.1487 33.1216 20.7221 31.534 19.141 30.696C18.1104 30.1484 17.2517 31.6798 18.2887 32.2339L18.2761 32.2336Z" fill="black"/>
<path d="M27.3042 40.3585C28.7304 43.085 29.1387 46.4283 29.5263 49.4041C29.9361 52.526 30.1883 55.6761 30.2757 58.8099C30.3073 59.9685 32.0986 60.0012 32.0608 58.8489C31.9765 55.5696 31.7086 52.28 31.2578 49.018C30.807 45.756 30.3545 42.4181 28.8359 39.5125C28.288 38.4692 26.7566 39.3279 27.298 40.3647L27.3042 40.3585Z" fill="black"/>
<path d="M8.1867 27.1499C13.6778 30.3004 20.2484 30.4438 26.2028 29.5993C32.1572 28.7549 38.2636 26.7622 43.5259 23.7767C44.5134 23.2162 43.5932 21.6396 42.6057 22.2002C37.6372 25.0212 32.0339 26.873 26.3273 27.7672C20.6208 28.6613 14.2802 28.6242 9.03274 25.6182C8.01396 25.0329 7.16172 26.5707 8.1805 27.1561L8.1867 27.1499Z" fill="black"/>
<path d="M30.8556 28.5588C34.5929 23.5407 38.5233 18.666 42.3315 13.7064C43.0082 12.8227 41.727 11.5167 41.0379 12.4128C37.1246 17.4903 33.1084 22.4897 29.279 27.6386C28.6091 28.5414 30.1918 29.4554 30.8556 28.5588Z" fill="black"/>
<path d="M-2.00888 21.2885C1.75085 23.6736 4.39165 27.5528 6.69349 31.2664C8.99534 34.9801 10.9533 38.8823 13.3551 42.5348C14.0029 43.517 15.5408 42.6648 14.8929 41.6826C12.354 37.8309 10.3086 33.6927 7.84449 29.792C5.38039 25.8914 2.68635 22.1818 -1.15692 19.738C-2.14502 19.109 -2.99726 20.6469 -2.00916 21.2758L-2.00888 21.2885Z" fill="black"/>
<path d="M-8.34611 17.0646C-4.25023 18.9065 0.457993 18.946 4.78708 18.7178C9.50162 18.4663 14.168 17.7456 18.7469 16.7889C19.8681 16.5603 19.3745 14.8159 18.2533 15.0445C13.9073 15.9494 9.49363 16.6503 5.0323 16.9073C0.981732 17.1416 -3.64075 17.2621 -7.50033 15.5202C-8.55461 15.048 -9.41978 16.5729 -8.35257 17.0581L-8.34611 17.0646Z" fill="black"/>
<path d="M88.817 56.6892C86.9966 58.5097 86.9257 61.9311 88.9723 63.8043C91.0188 65.6775 94.1368 65.91 96.0873 63.9596C97.9078 62.1391 97.9786 58.7177 95.9321 56.8445C93.8855 54.9713 90.7675 54.7388 88.817 56.6892Z" fill="#D74848"/>
<path d="M82.0925 41.5153C80.272 43.3358 80.2012 46.7572 82.2477 48.6304C84.2943 50.5036 87.4123 50.7361 89.3628 48.7856C91.1832 46.9652 91.2606 43.5503 89.2137 41.6644C87.1669 39.7785 84.0491 39.5587 82.0987 41.5091L82.0925 41.5153Z" fill="#D74848"/>
<path d="M76.1842 64.6736C74.3637 66.4941 74.2929 69.9155 76.3394 71.7887C78.386 73.6619 81.504 73.8944 83.4545 71.9439C85.2749 70.1235 85.3458 66.7021 83.2992 64.8289C81.2527 62.9557 78.1347 62.7231 76.1842 64.6736Z" fill="#D74848"/>
<path d="M59.442 31.5642C57.6216 33.3847 57.5507 36.8061 59.5973 38.6793C61.6438 40.5525 64.7618 40.785 66.7123 38.8346C68.5328 37.0141 68.6036 33.5927 66.5571 31.7195C64.5105 29.8463 61.3925 29.6138 59.442 31.5642Z" fill="#D74848"/>
<path d="M49.442 57.0252C47.6216 58.8456 47.5507 62.2671 49.5973 64.1402C51.6438 66.0134 54.7618 66.246 56.7123 64.2955C58.5328 62.4751 58.6036 59.0536 56.5571 57.1804C54.5105 55.3072 51.3925 55.0747 49.442 57.0252Z" fill="#D74848"/>
<path d="M25.7779 56.3533C23.9575 58.1738 23.8866 61.5952 25.9332 63.4684C27.9798 65.3416 31.0978 65.5741 33.0483 63.6236C34.8687 61.8032 34.9396 58.3818 32.893 56.5086C30.8464 54.6354 27.7284 54.4028 25.7779 56.3533Z" fill="#D74848"/>
<path d="M45.5444 17.1872L45.7001 17.0703C46.6274 16.363 47.1221 14.6781 47.091 13.5449C47.0642 12.3168 46.4875 10.8237 45.5448 9.95529C44.6021 9.08689 43.2959 8.37506 41.9552 8.40908C40.526 8.44116 39.5315 8.96992 38.4298 9.80003L38.2741 9.91685C37.3468 10.6242 36.8521 12.3091 36.8832 13.4423C36.91 14.6704 37.4867 16.1635 38.4294 17.0319C39.3721 17.9003 40.6784 18.6121 42.019 18.5781C43.4482 18.546 44.4427 18.0173 45.5444 17.1872L45.7001 17.0703C46.6274 16.363 47.1221 14.6781 47.091 13.5449C47.0642 12.3168 46.4875 10.8237 45.5448 9.95529C44.6021 9.08689 43.2959 8.37506 41.9552 8.40908C40.526 8.44116 39.5315 8.96992 38.4298 9.80003L38.2741 9.91685C37.3468 10.6242 36.8521 12.3091 36.8832 13.4423C36.91 14.6704 37.4867 16.1635 38.4294 17.0319C39.3721 17.9003 40.6784 18.6121 42.019 18.5781C43.4482 18.546 44.4427 18.0173 45.5444 17.1872Z" fill="#D74848"/>
<path d="M65.215 67.6944C62.9735 69.9359 66.6086 73.5711 68.8501 71.3296C71.0916 69.0881 67.4565 65.4529 65.215 67.6944Z" fill="#D74848"/>
<path d="M77.465 36.0616C75.2235 38.3031 78.8586 41.9383 81.1001 39.6968C83.3416 37.4552 79.7065 33.8201 77.465 36.0616Z" fill="#D74848"/>
<path d="M42.1525 21.9444C39.911 24.1859 43.5461 27.8211 45.7876 25.5796C48.0291 23.3381 44.394 19.7029 42.1525 21.9444Z" fill="#D74848"/>
<path d="M40.2931 59.8741C38.0516 62.1156 41.6867 65.7508 43.9282 63.5093C46.1698 61.2677 42.5346 57.6326 40.2931 59.8741Z" fill="#D74848"/>
<path d="M15.7648 45.9741C15.852 45.9128 15.9266 45.8511 16.0138 45.7898C16.2618 45.5547 16.433 45.2801 16.5273 44.9658C16.6729 44.6779 16.7293 44.3628 16.7095 44.0334C16.7149 43.7045 16.6383 43.3801 16.4865 43.0921C16.3845 42.7672 16.1947 42.4783 15.9365 42.2449L15.3895 41.8217C14.9985 41.5917 14.5847 41.4751 14.1416 41.4655L13.504 41.5338C13.0699 41.6445 12.6948 41.8515 12.379 42.1673C12.2917 42.2286 12.2171 42.2903 12.1299 42.3516C11.882 42.5867 11.7108 42.8613 11.6164 43.1756C11.4708 43.4635 11.4144 43.7786 11.4343 44.1081C11.4288 44.437 11.5055 44.7613 11.6573 45.0493C11.7593 45.3742 11.9491 45.6631 12.2073 45.8965L12.7543 46.3197C13.1453 46.5497 13.5591 46.6663 14.0022 46.676L14.6397 46.6076C15.0739 46.4969 15.449 46.2899 15.7648 45.9741Z" fill="#D74848"/>
<path d="M17.4337 14.3741C15.1922 16.6156 18.8274 20.2508 21.0689 18.0093C23.3104 15.7677 19.6752 12.1326 17.4337 14.3741Z" fill="#D74848"/>
<path d="M155.021 87.2517C158.78 72.1365 164.264 57.4518 170.355 43.0387C173.41 35.8223 176.622 28.6722 179.859 21.5342C183.096 14.3962 186.621 7.10637 190.526 0.130959C194.976 -7.81177 199.914 -15.4867 205.469 -22.7386C206.179 -23.6715 204.641 -24.5111 203.931 -23.5908C194.058 -10.6832 186.136 3.54214 179.431 18.2345C172.932 32.4857 166.515 46.7922 161.151 61.4805C158.11 69.8101 155.42 78.2585 153.284 86.8341C153 87.9602 154.725 88.3781 155.009 87.252L155.021 87.2517Z" fill="black"/>
<path d="M147.005 75.8152C150.724 71.2671 154.585 66.8235 158.204 62.2017C161.823 57.5798 164.938 52.5451 168.501 47.8549C169.211 46.9219 167.667 46.0762 166.963 47.0026C163.407 51.6864 160.337 56.6759 156.699 61.3044C153.061 65.933 149.394 70.1446 145.767 74.5768C145.026 75.4788 146.258 76.7236 147.005 75.8152Z" fill="black"/>
<path d="M169.836 79.3288C168.162 73.9683 168.351 68.2065 168.544 62.5775C168.634 59.8612 168.776 57.1311 168.677 54.4189C168.578 51.7068 168.06 49.0543 168.845 46.4621C169.179 45.3476 167.467 44.9294 167.12 46.0442C166.329 48.6429 166.726 51.3549 166.865 53.9776C167.011 56.8406 166.846 59.742 166.752 62.6229C166.556 68.3912 166.382 74.3361 168.097 79.8286C168.434 80.9158 170.179 80.4222 169.842 79.335L169.836 79.3288Z" fill="black"/>
<path d="M159.313 57.5011C154.573 58.1423 150.188 60.1615 145.681 61.734C144.578 62.1187 144.996 63.8432 146.099 63.4585C150.44 61.9529 154.724 59.9106 159.28 59.2924C159.769 59.2248 160.181 58.8994 160.192 58.3804C160.202 57.9372 159.795 57.44 159.319 57.5073L159.313 57.5011Z" fill="black"/>
<path d="M166.898 66.2459C169.559 69.3071 171.875 72.7365 174.988 75.3703C175.839 76.092 177.145 74.8107 176.281 74.0766C173.169 71.4428 170.852 68.0135 168.192 64.9523C167.458 64.1015 166.164 65.3951 166.898 66.2459Z" fill="black"/>
<path d="M173.419 31.7387C172.496 32.8978 171.266 33.8673 170.157 34.8279C168.255 36.4576 166.303 38.0376 164.333 39.5865C160.85 42.3388 157.314 45.2062 153.518 47.5036C152.512 48.1139 153.364 49.6518 154.371 49.0414C158.237 46.7109 161.818 43.7856 165.366 40.9939C167.348 39.4321 169.313 37.8517 171.234 36.2027C172.407 35.2027 173.695 34.1876 174.664 32.9706C175.386 32.0628 174.161 30.8114 173.426 31.7323L173.419 31.7387Z" fill="black"/>
<path d="M172.678 33.6969C172.931 35.4124 172.887 37.1786 173.051 38.9086C173.242 40.9102 173.75 42.8542 174.258 44.7855C175.391 49.1012 176.773 53.3292 177.907 57.6448C178.199 58.752 179.943 58.2584 179.651 57.1512C178.511 52.842 177.129 48.6014 176.002 44.2919C175.494 42.3479 174.961 40.3918 174.803 38.3706C174.663 36.6526 174.683 34.8996 174.429 33.1968C174.257 32.068 172.519 32.5678 172.684 33.6905L172.678 33.6969Z" fill="black"/>
<path d="M181.766 13.2761C181.443 13.8842 180.9 14.4149 180.452 14.9372C179.744 15.7688 179.011 16.5883 178.279 17.4079C176.56 19.3119 174.707 21.029 172.729 22.6729C166.556 27.7807 159.707 31.9669 152.983 36.2515C151.995 36.8805 152.841 38.4248 153.835 37.7894C160.701 33.4131 167.672 29.1293 173.973 23.9175C176.022 22.2151 177.915 20.4465 179.692 18.4716C180.878 17.1487 182.466 15.7221 183.304 14.141C183.852 13.1104 182.32 12.2517 181.766 13.2887L181.766 13.2761Z" fill="black"/>
<path d="M173.641 22.3042C170.915 23.7304 167.572 24.1387 164.596 24.5263C161.474 24.9361 158.324 25.1883 155.19 25.2757C154.032 25.3073 153.999 27.0986 155.151 27.0608C158.43 26.9765 161.72 26.7086 164.982 26.2578C168.244 25.807 171.582 25.3545 174.488 23.8359C175.531 23.288 174.672 21.7566 173.635 22.298L173.641 22.3042Z" fill="black"/>
<path d="M186.85 3.1867C183.7 8.67778 183.556 15.2484 184.401 21.2028C185.245 27.1572 187.238 33.2636 190.223 38.5259C190.784 39.5134 192.36 38.5932 191.8 37.6057C188.979 32.6372 187.127 27.0339 186.233 21.3273C185.339 15.6208 185.376 9.28023 188.382 4.03274C188.967 3.01396 187.429 2.16172 186.844 3.1805L186.85 3.1867Z" fill="black"/>
<path d="M185.441 25.8556C190.459 29.5929 195.334 33.5233 200.294 37.3315C201.177 38.0082 202.483 36.727 201.587 36.0379C196.51 32.1246 191.51 28.1084 186.361 24.279C185.459 23.6091 184.545 25.1918 185.441 25.8556Z" fill="black"/>
<path d="M192.711 -7.00888C190.326 -3.24915 186.447 -0.608354 182.734 1.69349C179.02 3.99534 175.118 5.95332 171.465 8.35507C170.483 9.00289 171.335 10.5408 172.317 9.89294C176.169 7.35398 180.307 5.3086 184.208 2.84449C188.109 0.380385 191.818 -2.31365 194.262 -6.15692C194.891 -7.14502 193.353 -7.99726 192.724 -7.00916L192.711 -7.00888Z" fill="black"/>
<path d="M196.935 -13.3461C195.093 -9.25023 195.054 -4.54201 195.282 -0.212917C195.534 4.50162 196.254 9.16796 197.211 13.7469C197.44 14.8681 199.184 14.3745 198.955 13.2533C198.051 8.90731 197.35 4.49363 197.093 0.0322967C196.858 -4.01827 196.738 -8.64075 198.48 -12.5003C198.952 -13.5546 197.427 -14.4198 196.942 -13.3526L196.935 -13.3461Z" fill="black"/>
<path d="M157.311 83.817C155.49 81.9966 152.069 81.9257 150.196 83.9723C148.323 86.0188 148.09 89.1368 150.04 91.0873C151.861 92.9078 155.282 92.9786 157.155 90.9321C159.029 88.8855 159.261 85.7675 157.311 83.817Z" fill="#D74848"/>
<path d="M172.485 77.0925C170.664 75.272 167.243 75.2012 165.37 77.2477C163.496 79.2943 163.264 82.4123 165.214 84.3628C167.035 86.1832 170.45 86.2606 172.336 84.2137C174.221 82.1669 174.441 79.0491 172.491 77.0987L172.485 77.0925Z" fill="#D74848"/>
<path d="M149.326 71.1842C147.506 69.3637 144.085 69.2929 142.211 71.3394C140.338 73.386 140.106 76.504 142.056 78.4545C143.877 80.2749 147.298 80.3458 149.171 78.2992C151.044 76.2527 151.277 73.1347 149.326 71.1842Z" fill="#D74848"/>
<path d="M182.436 54.442C180.615 52.6216 177.194 52.5507 175.321 54.5973C173.448 56.6438 173.215 59.7618 175.165 61.7123C176.986 63.5328 180.407 63.6036 182.28 61.5571C184.154 59.5105 184.386 56.3925 182.436 54.442Z" fill="#D74848"/>
<path d="M156.975 44.442C155.154 42.6216 151.733 42.5507 149.86 44.5973C147.987 46.6438 147.754 49.7618 149.705 51.7123C151.525 53.5328 154.946 53.6036 156.82 51.5571C158.693 49.5105 158.925 46.3925 156.975 44.442Z" fill="#D74848"/>
<path d="M157.647 20.7779C155.826 18.9575 152.405 18.8866 150.532 20.9332C148.658 22.9798 148.426 26.0978 150.376 28.0483C152.197 29.8687 155.618 29.9396 157.491 27.893C159.365 25.8464 159.597 22.7284 157.647 20.7779Z" fill="#D74848"/>
<path d="M196.813 40.5444L196.93 40.7001C197.637 41.6274 199.322 42.1221 200.455 42.091C201.683 42.0642 203.176 41.4875 204.045 40.5448C204.913 39.6021 205.625 38.2959 205.591 36.9552C205.559 35.526 205.03 34.5315 204.2 33.4298L204.083 33.2741C203.376 32.3468 201.691 31.8521 200.558 31.8832C199.33 31.91 197.836 32.4867 196.968 33.4294C196.1 34.3721 195.388 35.6784 195.422 37.019C195.454 38.4482 195.983 39.4427 196.813 40.5444L196.93 40.7001C197.637 41.6274 199.322 42.1221 200.455 42.091C201.683 42.0642 203.176 41.4875 204.045 40.5448C204.913 39.6021 205.625 38.2959 205.591 36.9552C205.559 35.526 205.03 34.5315 204.2 33.4298L204.083 33.2741C203.376 32.3468 201.691 31.8521 200.558 31.8832C199.33 31.91 197.836 32.4867 196.968 33.4294C196.1 34.3721 195.388 35.6784 195.422 37.019C195.454 38.4482 195.983 39.4427 196.813 40.5444Z" fill="#D74848"/>
<path d="M146.306 60.215C144.064 57.9735 140.429 61.6086 142.67 63.8501C144.912 66.0916 148.547 62.4565 146.306 60.215Z" fill="#D74848"/>
<path d="M177.938 72.465C175.697 70.2235 172.062 73.8586 174.303 76.1001C176.545 78.3416 180.18 74.7065 177.938 72.465Z" fill="#D74848"/>
<path d="M192.056 37.1525C189.814 34.911 186.179 38.5461 188.42 40.7876C190.662 43.0291 194.297 39.394 192.056 37.1525Z" fill="#D74848"/>
<path d="M154.126 35.2931C151.884 33.0516 148.249 36.6867 150.491 38.9282C152.732 41.1698 156.367 37.5346 154.126 35.2931Z" fill="#D74848"/>
<path d="M168.026 10.7648C168.087 10.852 168.149 10.9266 168.21 11.0138C168.445 11.2618 168.72 11.433 169.034 11.5273C169.322 11.6729 169.637 11.7293 169.967 11.7095C170.296 11.7149 170.62 11.6383 170.908 11.4865C171.233 11.3845 171.522 11.1947 171.755 10.9365L172.178 10.3895C172.408 9.99848 172.525 9.58468 172.535 9.14157L172.466 8.50402C172.355 8.06987 172.149 7.69476 171.833 7.37896C171.771 7.29172 171.71 7.21715 171.648 7.12991C171.413 6.88195 171.139 6.71078 170.824 6.61641C170.537 6.47084 170.221 6.41445 169.892 6.43429C169.563 6.42881 169.239 6.50549 168.951 6.65729C168.626 6.75929 168.337 6.94908 168.103 7.20726L167.68 7.75429C167.45 8.14527 167.334 8.55908 167.324 9.00218L167.392 9.63973C167.503 10.0739 167.71 10.449 168.026 10.7648Z" fill="#D74848"/>
<path d="M199.626 12.4337C197.384 10.1922 193.749 13.8274 195.991 16.0689C198.232 18.3104 201.867 14.6752 199.626 12.4337Z" fill="#D74848"/>
<path d="M63.9788 121.748C60.2197 136.864 54.7363 151.548 48.6452 165.961C45.5899 173.178 42.3779 180.328 39.1408 187.466C35.9037 194.604 32.3786 201.894 28.4745 208.869C24.024 216.812 19.0859 224.487 13.5307 231.739C12.8206 232.672 14.3588 233.511 15.0685 232.591C24.9421 219.683 32.864 205.458 39.5686 190.766C46.0675 176.514 52.4854 162.208 57.8486 147.519C60.8902 139.19 63.5801 130.741 65.7159 122.166C65.9999 121.04 64.2754 120.622 63.9914 121.748L63.9788 121.748Z" fill="black"/>
<path d="M71.9946 133.185C68.2763 137.733 64.4147 142.177 60.7959 146.798C57.1772 151.42 54.062 156.455 50.4987 161.145C49.7887 162.078 51.333 162.924 52.0366 161.997C55.5934 157.314 58.6633 152.324 62.3012 147.696C65.939 143.067 69.6058 138.855 73.233 134.423C73.974 133.521 72.742 132.276 71.9946 133.185Z" fill="black"/>
<path d="M49.1721 129.671C50.8457 135.032 50.6567 140.794 50.4643 146.423C50.3734 149.139 50.2316 151.869 50.3306 154.581C50.4296 157.293 50.9474 159.946 50.1633 162.538C49.8289 163.652 51.5408 164.071 51.8878 162.956C52.6784 160.357 52.2821 157.645 52.1431 155.022C51.9968 152.159 52.1614 149.258 52.2559 146.377C52.4513 140.609 52.6253 134.664 50.9103 129.171C50.5734 128.084 48.829 128.578 49.1659 129.665L49.1721 129.671Z" fill="black"/>
<path d="M59.6868 151.499C64.4271 150.858 68.8116 148.839 73.3192 147.266C74.4222 146.881 74.0042 145.157 72.9013 145.541C68.5596 147.047 64.2759 149.089 59.7196 149.708C59.2309 149.775 58.8189 150.101 58.8075 150.62C58.7979 151.063 59.2046 151.56 59.6806 151.493L59.6868 151.499Z" fill="black"/>
<path d="M52.1017 142.754C49.4415 139.693 47.1247 136.264 44.0123 133.63C43.1612 132.908 41.8552 134.189 42.7186 134.923C45.831 137.557 48.1478 140.987 50.808 144.048C51.5424 144.899 52.836 143.605 52.1017 142.754Z" fill="black"/>
<path d="M45.5805 177.261C46.5042 176.102 47.7339 175.133 48.8431 174.172C50.7452 172.542 52.6968 170.962 54.6666 169.414C58.1497 166.661 61.6858 163.794 65.4816 161.496C66.4883 160.886 65.636 159.348 64.6294 159.959C60.7633 162.289 57.1816 165.214 53.6344 168.006C51.6516 169.568 49.6873 171.148 47.7659 172.797C46.5925 173.797 45.3049 174.812 44.3356 176.029C43.6135 176.937 44.839 178.189 45.574 177.268L45.5805 177.261Z" fill="black"/>
<path d="M46.3222 175.303C46.0686 173.588 46.1135 171.821 45.9488 170.091C45.7584 168.09 45.2503 166.146 44.742 164.215C43.6087 159.899 42.2267 155.671 41.0935 151.355C40.8013 150.248 39.0569 150.742 39.3491 151.849C40.4888 156.158 41.8705 160.399 42.9976 164.708C43.5056 166.652 44.0387 168.608 44.1971 170.629C44.3368 172.347 44.3175 174.1 44.5714 175.803C44.7429 176.932 46.4811 176.432 46.3158 175.31L46.3222 175.303Z" fill="black"/>
<path d="M37.2336 195.724C37.5569 195.116 38.1 194.585 38.5479 194.063C39.2557 193.231 39.9886 192.412 40.7214 191.592C42.4396 189.688 44.293 187.971 46.2713 186.327C52.4441 181.219 59.2928 177.033 66.0171 172.748C67.0052 172.12 66.1594 170.575 65.1649 171.211C58.2994 175.587 51.3283 179.871 45.0267 185.082C42.9775 186.785 41.0851 188.554 39.3084 190.528C38.1216 191.851 36.534 193.278 35.696 194.859C35.1484 195.89 36.6798 196.748 37.2339 195.711L37.2336 195.724Z" fill="black"/>
<path d="M45.3585 186.696C48.085 185.27 51.4283 184.861 54.4041 184.474C57.526 184.064 60.6761 183.812 63.8099 183.724C64.9685 183.693 65.0012 181.901 63.8489 181.939C60.5696 182.023 57.28 182.291 54.018 182.742C50.756 183.193 47.4181 183.645 44.5125 185.164C43.4692 185.712 44.3279 187.243 45.3647 186.702L45.3585 186.696Z" fill="black"/>
<path d="M32.1499 205.813C35.3004 200.322 35.4438 193.752 34.5993 187.797C33.7549 181.843 31.7622 175.736 28.7767 170.474C28.2162 169.487 26.6396 170.407 27.2002 171.394C30.0212 176.363 31.873 181.966 32.7672 187.673C33.6613 193.379 33.6242 199.72 30.6182 204.967C30.0329 205.986 31.5707 206.838 32.1561 205.819L32.1499 205.813Z" fill="black"/>
<path d="M33.5588 183.144C28.5407 179.407 23.666 175.477 18.7064 171.668C17.8227 170.992 16.5167 172.273 17.4128 172.962C22.4903 176.875 27.4897 180.892 32.6386 184.721C33.5414 185.391 34.4554 183.808 33.5588 183.144Z" fill="black"/>
<path d="M26.2885 216.009C28.6736 212.249 32.5528 209.608 36.2664 207.307C39.9801 205.005 43.8823 203.047 47.5348 200.645C48.517 199.997 47.6648 198.459 46.6826 199.107C42.8309 201.646 38.6927 203.691 34.792 206.156C30.8914 208.62 27.1818 211.314 24.738 215.157C24.109 216.145 25.6469 216.997 26.2758 216.009L26.2885 216.009Z" fill="black"/>
<path d="M22.0646 222.354C23.9065 218.258 23.946 213.55 23.7178 209.221C23.4663 204.506 22.7456 199.84 21.7889 195.261C21.5603 194.14 19.8159 194.633 20.0445 195.755C20.9494 200.101 21.6503 204.514 21.9073 208.976C22.1416 213.026 22.2621 217.649 20.5202 221.508C20.048 222.562 21.5729 223.428 22.0581 222.36L22.0646 222.354Z" fill="black"/>
<path d="M61.6892 125.191C63.5097 127.011 66.9311 127.082 68.8043 125.036C70.6775 122.989 70.91 119.871 68.9596 117.92C67.1391 116.1 63.7177 116.029 61.8445 118.076C59.9713 120.122 59.7388 123.24 61.6892 125.191Z" fill="#D74848"/>
<path d="M46.5153 131.908C48.3358 133.728 51.7572 133.799 53.6304 131.752C55.5036 129.706 55.7361 126.588 53.7856 124.637C51.9652 122.817 48.5503 122.739 46.6644 124.786C44.7785 126.833 44.5587 129.951 46.5091 131.901L46.5153 131.908Z" fill="#D74848"/>
<path d="M69.6736 137.816C71.4941 139.636 74.9155 139.707 76.7887 137.661C78.6619 135.614 78.8944 132.496 76.9439 130.546C75.1235 128.725 71.7021 128.654 69.8289 130.701C67.9557 132.747 67.7231 135.865 69.6736 137.816Z" fill="#D74848"/>
<path d="M36.5642 154.558C38.3847 156.378 41.8061 156.449 43.6793 154.403C45.5525 152.356 45.785 149.238 43.8346 147.288C42.0141 145.467 38.5927 145.396 36.7195 147.443C34.8463 149.49 34.6138 152.608 36.5642 154.558Z" fill="#D74848"/>
<path d="M62.0252 164.558C63.8456 166.378 67.2671 166.449 69.1402 164.403C71.0134 162.356 71.246 159.238 69.2955 157.288C67.4751 155.467 64.0536 155.396 62.1804 157.443C60.3072 159.49 60.0747 162.608 62.0252 164.558Z" fill="#D74848"/>
<path d="M61.3533 188.222C63.1738 190.043 66.5952 190.113 68.4684 188.067C70.3416 186.02 70.5741 182.902 68.6236 180.952C66.8032 179.131 63.3818 179.06 61.5086 181.107C59.6354 183.154 59.4028 186.272 61.3533 188.222Z" fill="#D74848"/>
<path d="M22.1872 168.456L22.0703 168.3C21.363 167.373 19.6781 166.878 18.5449 166.909C17.3168 166.936 15.8237 167.512 14.9553 168.455C14.0869 169.398 13.3751 170.704 13.4091 172.045C13.4412 173.474 13.9699 174.468 14.8 175.57L14.9169 175.726C15.6242 176.653 17.3091 177.148 18.4423 177.117C19.6704 177.09 21.1635 176.513 22.0319 175.571C22.9003 174.628 23.6121 173.322 23.5781 171.981C23.546 170.552 23.0173 169.557 22.1872 168.456L22.0703 168.3C21.363 167.373 19.6781 166.878 18.5449 166.909C17.3168 166.936 15.8237 167.512 14.9553 168.455C14.0869 169.398 13.3751 170.704 13.4091 172.045C13.4412 173.474 13.9699 174.468 14.8 175.57L14.9169 175.726C15.6242 176.653 17.3091 177.148 18.4423 177.117C19.6704 177.09 21.1635 176.513 22.0319 175.571C22.9003 174.628 23.6121 173.322 23.5781 171.981C23.546 170.552 23.0173 169.557 22.1872 168.456Z" fill="#D74848"/>
<path d="M72.6944 148.785C74.9359 151.027 78.5711 147.391 76.3296 145.15C74.0881 142.908 70.4529 146.544 72.6944 148.785Z" fill="#D74848"/>
<path d="M41.0616 136.535C43.3031 138.777 46.9383 135.141 44.6968 132.9C42.4552 130.658 38.8201 134.294 41.0616 136.535Z" fill="#D74848"/>
<path d="M26.9444 171.848C29.1859 174.089 32.8211 170.454 30.5796 168.212C28.3381 165.971 24.7029 169.606 26.9444 171.848Z" fill="#D74848"/>
<path d="M64.8741 173.707C67.1156 175.948 70.7508 172.313 68.5093 170.072C66.2677 167.83 62.6326 171.465 64.8741 173.707Z" fill="#D74848"/>
<path d="M50.9741 198.235C50.9128 198.148 50.8511 198.073 50.7898 197.986C50.5547 197.738 50.2801 197.567 49.9658 197.473C49.6779 197.327 49.3628 197.271 49.0334 197.291C48.7045 197.285 48.3801 197.362 48.0921 197.514C47.7672 197.616 47.4783 197.805 47.2449 198.064L46.8217 198.611C46.5917 199.002 46.4751 199.415 46.4655 199.858L46.5338 200.496C46.6445 200.93 46.8515 201.305 47.1673 201.621C47.2286 201.708 47.2903 201.783 47.3516 201.87C47.5867 202.118 47.8613 202.289 48.1756 202.384C48.4635 202.529 48.7786 202.586 49.1081 202.566C49.437 202.571 49.7613 202.495 50.0493 202.343C50.3742 202.241 50.6631 202.051 50.8965 201.793L51.3197 201.246C51.5497 200.855 51.6663 200.441 51.676 199.998L51.6076 199.36C51.4969 198.926 51.2899 198.551 50.9741 198.235Z" fill="#D74848"/>
<path d="M19.3741 196.566C21.6156 198.808 25.2508 195.173 23.0093 192.931C20.7677 190.69 17.1326 194.325 19.3741 196.566Z" fill="#D74848"/>
<path d="M123.023 79.7109C120.255 79.754 117.547 80.5267 115.173 81.951C112.799 83.3753 110.843 85.4009 109.502 87.823C108.162 85.4009 106.206 83.3753 103.832 81.951C101.458 80.5267 98.7504 79.754 95.9824 79.7109C91.5698 79.9027 87.4124 81.833 84.4185 85.0802C81.4246 88.3274 79.8375 92.6276 80.0041 97.0413C80.0041 108.219 91.769 120.426 101.636 128.703C103.839 130.554 106.625 131.569 109.502 131.569C112.38 131.569 115.166 130.554 117.369 128.703C127.236 120.426 139.001 108.219 139.001 97.0413C139.167 92.6276 137.58 88.3274 134.587 85.0802C131.593 81.833 127.435 79.9027 123.023 79.7109Z" fill="#FFB0B0"/>
</g>
</g>
<defs>
<filter id="filter0_d_46_1076" x="0" y="0" width="220" height="220" filterUnits="userSpaceOnUse" color-interpolation-filters="sRGB">
<feFlood flood-opacity="0" result="BackgroundImageFix"/>
<feColorMatrix in="SourceAlpha" type="matrix" values="0 0 0 0 0 0 0 0 0 0 0 0 0 0 0 0 0 0 127 0" result="hardAlpha"/>
<feOffset dy="5"/>
<feGaussianBlur stdDeviation="5"/>
<feComposite in2="hardAlpha" operator="out"/>
<feColorMatrix type="matrix" values="0 0 0 0 0 0 0 0 0 0 0 0 0 0 0 0 0 0 0.2 0"/>
<feBlend mode="normal" in2="BackgroundImageFix" result="effect1_dropShadow_46_1076"/>
<feBlend mode="normal" in="SourceGraphic" in2="effect1_dropShadow_46_1076" result="shape"/>
</filter>
<clipPath id="clip0_46_1076">
<rect x="10" y="5" width="200" height="200" rx="100" fill="white"/>
</clipPath>
</defs>
</svg>
